<svg width="0" height="0" class="hidden">
  <symbol viewBox="0 0 25 20" id="youtube">
    <path d="M24.4287 3.1225C25 5.35 25 10 25 10C25 10 25 14.65 24.4287 16.8775C24.1112 18.1088 23.1825 19.0775 22.0062 19.405C19.87 20 12.5 20 12.5 20C12.5 20 5.13375 20 2.99375 19.405C1.8125 19.0725 0.885 18.105 0.57125 16.8775C3.72529e-08 14.65 0 10 0 10C0 10 3.72529e-08 5.35 0.57125 3.1225C0.88875 1.89125 1.8175 0.9225 2.99375 0.595C5.13375 -2.23517e-07 12.5 0 12.5 0C12.5 0 19.87 -2.23517e-07 22.0062 0.595C23.1875 0.9275 24.115 1.895 24.4287 3.1225ZM10 14.375L17.5 10L10 5.625V14.375Z"></path>
  </symbol>
  <symbol viewBox="0 0 23 23" id="telegram">
    <path fill-rule="evenodd" clip-rule="evenodd" d="M23 11.5C23 17.8509 17.8509 23 11.5 23C5.14913 23 0 17.8509 0 11.5C0 5.14913 5.14913 0 11.5 0C17.8509 0 23 5.14913 23 11.5ZM11.9121 8.48987C10.7937 8.95467 8.55792 9.91779 5.20567 11.3783C4.66133 11.5949 4.37575 11.8067 4.34987 12.0137C4.30579 12.3644 4.74471 12.5024 5.34079 12.6893C5.42225 12.7152 5.50658 12.741 5.59283 12.7698C6.18029 12.9605 6.96996 13.1838 7.38013 13.1924C7.75292 13.2001 8.16883 13.0468 8.62788 12.7324C11.7597 10.6174 13.3764 9.54883 13.478 9.52583C13.5499 9.50954 13.6495 9.48846 13.7166 9.54883C13.7837 9.60825 13.777 9.72133 13.7703 9.752C13.7262 9.93696 12.007 11.5364 11.1157 12.3644C10.8378 12.6222 10.6413 12.8053 10.6011 12.8474C10.511 12.9404 10.419 13.0295 10.3308 13.1148C9.78458 13.64 9.37633 14.0348 10.3538 14.6788C10.8234 14.9883 11.1991 15.2442 11.5738 15.4991C11.983 15.778 12.3912 16.0559 12.9202 16.4028C13.0544 16.491 13.1828 16.582 13.3084 16.6712C13.7847 17.0114 14.213 17.3161 14.742 17.2682C15.0487 17.2395 15.3669 16.951 15.5279 16.0895C15.9083 14.052 16.6577 9.63988 16.8312 7.82096C16.8418 7.66994 16.8353 7.51821 16.812 7.36863C16.7981 7.24781 16.7393 7.13664 16.6472 7.05717C16.5102 6.94504 16.2974 6.92108 16.2016 6.923C15.7694 6.93067 15.1062 7.16162 11.9121 8.48987Z"></path>
  </symbol>
  <symbol viewBox="0 0 23 23" id="instagram">
    <path d="M11.4969 7.66503C9.38527 7.66503 7.66201 9.38832 7.66201 11.5C7.66201 13.6117 9.38527 15.335 11.4969 15.335C13.6085 15.335 15.3318 13.6117 15.3318 11.5C15.3318 9.38832 13.6085 7.66503 11.4969 7.66503ZM22.9987 11.5C22.9987 9.91193 23.0131 8.33824 22.9239 6.75304C22.8347 4.9118 22.4147 3.27769 21.0683 1.93128C19.7191 0.581998 18.0879 0.164841 16.2467 0.0756562C14.6586 -0.013529 13.085 0.00085573 11.4998 0.00085573C9.91174 0.00085573 8.33808 -0.013529 6.75292 0.0756562C4.91171 0.164841 3.27763 0.584875 1.93125 1.93128C0.581988 3.28057 0.164838 4.9118 0.0756548 6.75304C-0.0135288 8.34112 0.000855714 9.9148 0.000855714 11.5C0.000855714 13.0852 -0.0135288 14.6618 0.0756548 16.247C0.164838 18.0882 0.584864 19.7223 1.93125 21.0687C3.28051 22.418 4.91171 22.8352 6.75292 22.9243C8.34096 23.0135 9.91462 22.9991 11.4998 22.9991C13.0878 22.9991 14.6615 23.0135 16.2467 22.9243C18.0879 22.8352 19.7219 22.4151 21.0683 21.0687C22.4176 19.7194 22.8347 18.0882 22.9239 16.247C23.016 14.6618 22.9987 13.0881 22.9987 11.5ZM11.4969 17.4006C8.23164 17.4006 5.59641 14.7653 5.59641 11.5C5.59641 8.23467 8.23164 5.59939 11.4969 5.59939C14.7622 5.59939 17.3974 8.23467 17.3974 11.5C17.3974 14.7653 14.7622 17.4006 11.4969 17.4006ZM17.6391 6.73578C16.8767 6.73578 16.261 6.12012 16.261 5.35773C16.261 4.59534 16.8767 3.97967 17.6391 3.97967C18.4014 3.97967 19.0171 4.59534 19.0171 5.35773C19.0173 5.53876 18.9818 5.71806 18.9127 5.88535C18.8435 6.05265 18.742 6.20466 18.614 6.33266C18.486 6.46067 18.334 6.56217 18.1667 6.63135C17.9994 6.70052 17.8201 6.73601 17.6391 6.73578Z"></path>
  </symbol>
</svg>